<?xml version="1.0" encoding="UTF-8" standalone="no"?>
<!DOCTYPE svg PUBLIC "-//W3C//DTD SVG 1.1//EN" "http://www.w3.org/Graphics/SVG/1.1/DTD/svg11.dtd">
<svg width="100%" height="100%" viewBox="0 0 10829 4075" version="1.1" xmlns="http://www.w3.org/2000/svg" xmlns:xlink="http://www.w3.org/1999/xlink" xml:space="preserve" xmlns:serif="http://www.serif.com/" style="fill-rule:evenodd;clip-rule:evenodd;stroke-linejoin:round;stroke-miterlimit:2;">
    <g transform="matrix(5.55556,0,0,5.55556,1114.13,-554.942)">
        <g transform="matrix(1,0,0,1.06967,-134.24,-185.05)">
            <path d="M-44.164,496.608C-44.164,496.608 25.076,380.585 176.655,382.456C328.234,384.328 331.977,444.21 485.427,451.696C638.877,459.181 618.292,404.912 790.456,401.17C962.62,397.427 994.433,474.152 1303.2,464.795C1374.68,462.629 1511.57,262.69 1756.07,266.433C2000.57,270.175 1816.01,915.497 1816.01,915.497L-66.303,952.047L-44.164,496.608Z" style="fill:url(#_Linear1);"/>
        </g>
    </g>
    <defs>
        <linearGradient id="_Linear1" x1="0" y1="0" x2="1" y2="0" gradientUnits="userSpaceOnUse" gradientTransform="matrix(1.10916e-13,1811.4,-1811.4,1.10916e-13,750.723,-168.561)"><stop offset="0" style="stop-color:rgb(248,229,85);stop-opacity:1"/><stop offset="1" style="stop-color:rgb(216,0,150);stop-opacity:1"/></linearGradient>
    </defs>
</svg>
