<?xml version="1.0" encoding="UTF-8" standalone="no"?>
<!DOCTYPE svg PUBLIC "-//W3C//DTD SVG 1.1//EN" "http://www.w3.org/Graphics/SVG/1.1/DTD/svg11.dtd">
<svg width="100%" height="100%" viewBox="0 0 12004 3400" version="1.1" xmlns="http://www.w3.org/2000/svg" xmlns:xlink="http://www.w3.org/1999/xlink" xml:space="preserve" xmlns:serif="http://www.serif.com/" style="fill-rule:evenodd;clip-rule:evenodd;stroke-linejoin:round;stroke-miterlimit:2;">
    <g transform="matrix(5.55556,0,0,5.55556,2446.36,-2300.11)">
        <g transform="matrix(-1.10856,0,0,0.89247,1646.84,176.306)">
            <path d="M-44.164,496.608C-44.164,496.608 25.076,380.585 176.655,382.456C328.234,384.328 357.412,546.25 511.012,543.07C679.082,539.591 658.968,485.033 831.132,481.29C1003.3,477.547 950.573,407.924 1259.35,398.567C1330.82,396.402 1511.57,262.69 1756.07,266.433C2000.57,270.175 1816.01,915.497 1816.01,915.497L-66.303,952.047L-44.164,496.608Z" style="fill:url(#_Linear1);"/>
        </g>
    </g>
    <defs>
        <linearGradient id="_Linear1" x1="0" y1="0" x2="1" y2="0" gradientUnits="userSpaceOnUse" gradientTransform="matrix(1.10916e-13,1811.4,-1811.4,1.10916e-13,750.723,-168.561)"><stop offset="0" style="stop-color:rgb(248,229,85);stop-opacity:1"/><stop offset="1" style="stop-color:rgb(216,0,150);stop-opacity:1"/></linearGradient>
    </defs>
</svg>
